<svg version="1.1" xmlns="http://www.w3.org/2000/svg" xmlns:xlink="http://www.w3.org/1999/xlink" x="0px" y="0px" width="750px"
	 height="650px" viewBox="0 0 750 650" style="overflow:visible;enable-background:new 0 0 750 650;" xml:space="preserve">
  <style type="text/css">
  	.w{fill:#FFFFFF;}
  	.dot{fill:#FF4D4D;}
  </style>
  <g>
  	<g>
  		<g>
  			<path class="w" d="M100,50H50V0h50h50v50H100z M450,600h-50v-50h-50v50v50h-50v-50h-50v-50h-50h-50h-50v50H50v-50h50v-50h50
  				v-50h50v-50v-50h-50h-50v-50h50h50v-50v-50h-50h-50v-50h50h50v-50h-50V50h50h50h50v50v50v50v50v50v50v50v50v50v50h50v-50h50v-50
  				v-50v-50v-50v-50v-50v-50v-50h-50V50h50h50h50v50v50v50v50v50v50v50v50v50v50h50v50h-50v50h-50V600z M300,50V0h50v50H300z
  				 M500,50V0h50v50H500z M550,500h50v-50v-50v-50v-50v-50v-50v-50v-50h-50V50h50V0h50h50v50h50v50h-50v50v50v50v50v50v50v50h50v50
  				h-50h-50v50h-50h-50V500z"/>
  		</g>
  	</g>
  	<rect y="300" class="dot" width="50" height="50"/>
  </g>
</svg>
